<?xml version="1.0" encoding="utf-8"?>
<!-- Generator: Adobe Illustrator 24.1.1, SVG Export Plug-In . SVG Version: 6.00 Build 0)  -->
<svg version="1.1" id="Layer_1" xmlns="http://www.w3.org/2000/svg" xmlns:xlink="http://www.w3.org/1999/xlink" x="0px" y="0px"
	 viewBox="0 0 512 512" style="enable-background:new 0 0 512 512;" xml:space="preserve">
<g>
	<path fill="cyan" d="M91.4,0c10.1,0,18.3,8.2,18.3,18.3v475.4c0,10.1-8.2,18.3-18.3,18.3s-18.3-8.2-18.3-18.3V18.3
		C73.1,8.2,81.3,0,91.4,0z"/>
	<path fill="cyan" d="M101,57c35.6-23.7,58-38.7,100.1-38.7c23.9,0,41.7,11.9,54.7,20.5l1.2,0.8c14.3,9.5,23.6,15.2,35.6,15.2
		c6.1,0,13-1.5,21.5-4.6c7.3-2.8,14.6-5.8,21.7-9.1l6.6-2.9c20.8-9.3,46.7-19.9,78.3-19.9c10.1,0,18.3,8.2,18.3,18.3V256
		c0,10.1-8.2,18.3-18.3,18.3c-23.3,0-43.1,7.7-63.4,16.7l-5.8,2.5c-8,3.7-16.5,7.5-24.8,10.5c-10.8,4.2-22.3,6.5-34,6.8
		c-23.9,0-41.7-11.9-54.7-20.5l-1.2-0.8c-14.3-9.5-23.6-15.2-35.6-15.2c-30.5,0-44.5,9-81.3,33.5c-8.6,5.2-19.9,2.4-25.1-6.3
		c-5.2-8.7-2.4-19.9,6.3-25.1c35.6-23.7,58-38.7,100.1-38.7c23.9,0,41.7,11.9,54.7,20.5l1.2,0.8c14.3,9.5,23.6-15.2,35.6,15.2
		c6.1,0,13-1.5,21.5-4.6c6.8-2.5,13.7-5.6,21.7-9.1l6.6-2.9c16.7-7.5,36.6-15.7,60-18.7V56.4c-15.8,2.7-30.4,8.5-45.1,15.1l-5.8,2.5
		c-8,3.7-16.5,7.5-24.8,10.5c-10.8,4.2-22.3,6.5-34,6.8c-23.9,0-41.7-11.9-54.7-20.5l-1.2-0.8c-14.3-9.5-23.6-15.2-35.6-15.2
		c-30.5,0-44.5,9-81.3,33.5c-8.5,5.4-19.8,2.7-25.2-5.8c-5.1-8.2-3-19,5-24.6L101,57L101,57z"/>
</g>
</svg>
